<?xml version="1.0" encoding="utf-8"?>
<!-- Generator: Adobe Illustrator 19.0.0, SVG Export Plug-In . SVG Version: 6.00 Build 0)  -->
<svg version="1.1" id="Layer_1" xmlns="http://www.w3.org/2000/svg" xmlns:xlink="http://www.w3.org/1999/xlink" x="0px" y="0px"
	 viewBox="214 -214 512 512" style="enable-background:new 214 -214 512 512;" xml:space="preserve">
<g>
	<!-- <path style="fill:#22B99A;" d="M341.6,210.7L646.5-90.2c-5.6-6.4-11.5-12.4-17.8-18.1L323.3,193.1
		C329,199.3,335.2,205.2,341.6,210.7z"/> -->
	<g>
		<!-- <path style="fill:#F5F6F6;" d="M725.8,42.4c0,141.4-114.6,256-256,256s-256-114.6-256-256s114.6-256,256-256
			C611.2-213.6,725.8-99,725.8,42.4z"/>
		<path style="fill:#22B99A;" d="M699.3,42.4c0,126.8-102.7,229.5-229.5,229.5S240.3,169.1,240.3,42.4s102.8-229.5,229.5-229.5
			C596.6-187.1,699.3-84.4,699.3,42.4z"/> -->
		<path style="fill:#FFFFFF;" d="M672.8,42.4c0,112.1-90.9,203-203,203s-203-90.9-203-203s90.9-203,203-203
			C581.9-160.7,672.8-69.8,672.8,42.4z"/>
		<g>
			<g>
				<defs>
					<path id="SVGID_1_" d="M672.8,42.4c0,112.1-90.9,203-203,203s-203-90.9-203-203s90.9-203,203-203
						C581.9-160.7,672.8-69.8,672.8,42.4z"/>
                    <clipPath id="SVGID_2_">
                        <use xlink:href="#SVGID_1_"  style="overflow:visible;"/>
                    </clipPath>
				</defs>
				<path style="clip-path:url(#SVGID_2_);fill:#F2F2F2;enable-background:new    ;" d="M511,297.2L372.3,158.5c0,0,10.4-27,45.3-51
					c19.8-13.6,29.5-49.5,48.8-86.1c29.2-55,32.8-95.7,46.2-114.6c11.1-15.5,16.7-15.4,16.7-15.4L723,85.2L511,297.2z"/>
			</g>
		</g>
		<circle style="fill:#1A1A1A;" cx="421.3" cy="76.2" r="26.7"/>
		<circle style="fill:#1A1A1A;" cx="439.2" cy="37.8" r="21.7"/>
		<circle style="fill:#1A1A1A;" cx="500.5" cy="43.3" r="21.9"/>
		<path style="fill:#1A1A1A;" d="M542.6,83.5c0,13.3-10.7,24-24,24c-13.3,0-24-10.7-24-24s10.7-24,24-24
			C531.9,59.5,542.6,70.3,542.6,83.5z"/>
		<g>
			<path style="fill:#412312;" d="M552-16.5c-10.7-17.4-25.7-31.2-43.4-39.7c1-3.6,1.8-7.3,2.4-10.9c2.8-14.5,5.3-23.6,16.7-27.5
				c4.1-1.4,6.3-5.9,4.9-10c-1.4-4.1-6-6.3-10.1-4.9c-20.8,7.2-24.3,25.8-26.9,39.4c-0.6,3.1-1.2,5.8-1.8,8.2
				c-8.1-2.4-16.5-3.5-25.3-3.5c-4.6,0-9.2,0.4-13.7,1.1c-0.4-1.8-0.8-3.7-1.2-5.8c-2.7-13.6-6.2-32.2-27-39.4
				c-4.1-1.4-8.5,0.8-10,4.9c-1.4,4,0.7,8.5,4.9,10c11.3,4,13.9,13,16.6,27.5c0.4,2.2,0.9,4.4,1.4,6.6c-21.1,7-39.3,21.2-51.9,40.2
				c22.1,11.4,52.6,18.5,86.2,18.5C503.5-1.8,530.8-7.4,552-16.5L552-16.5z"/>
			<path style="fill:#412312;" d="M470.5,134.3c-0.9,1.8-2.1,3.5-3.7,5.3c-4.7,5.3-11.4,9-19.8,11.2c6.9,1.7,14.1,2.6,21.5,2.6
				c8.1,0,16-1.2,23.6-3.2c-7.5-2.3-13.5-5.9-17.9-10.6C472.7,137.8,471.5,136.1,470.5,134.3L470.5,134.3z"/>
			<path style="fill:#F15C27;" d="M466.4,119.8V5.9c-32-1-61.1-8.3-82.8-19.8c-3.1,5.5-5.8,11.2-8,17.2l-0.1-0.1
				c-1.3,3.4-3.1,8.7-4.5,15.8l0,0c-0.1,0.4-0.1,0.7-0.2,1.1c-1.8,9.8-2.9,22.7-1.3,38.2c3.8,36,23.6,59.2,34.7,69.6
				c7.9,7.3,16.8,13.2,26.6,17.6c14-0.8,24.3-4.6,30.1-11.1C467.1,127.5,466.4,119.9,466.4,119.8z M419.4,97.6
				c-9.8,0-17.6-7.9-17.6-17.6c0-9.8,7.9-17.7,17.6-17.7c9.8,0,17.7,7.9,17.7,17.7C437.1,89.8,429.2,97.6,419.4,97.6z M437.1,49.7
				c-7.9,0-14.3-6.4-14.3-14.3c0-7.8,6.4-14.3,14.3-14.3s14.3,6.5,14.3,14.3C451.3,43.3,444.9,49.7,437.1,49.7z"/>
			<g>
				<path style="fill:#2F180E;" d="M595.2-4.9c-8,2-20.9,5.3-32.8,10.8c1,2.7,2.8,8.1,4.3,15.5c7.9-3.9,18.5-7.6,32.3-11.1
					c4.2-1.1,6.8-5.4,5.7-9.6C603.7-3.4,599.4-6,595.2-4.9z"/>
				<g>
					<path style="fill:#2F180E;" d="M567.3,150.7c-5.1-11.2-12.1-26.2-22.1-36.5l0,0l0,0c-4.1,5.5-7.8,9.5-10.4,11.9
						c7.7,8.4,13.9,22,18.1,31.2l0.3,0.8c1.3,2.9,4.2,4.6,7.2,4.6c1.1,0,2.2-0.2,3.2-0.7c3.9-1.8,5.7-6.5,3.9-10.4L567.3,150.7z"/>
					<path style="fill:#2F180E;" d="M596.5,79.5c-9.4-4.4-19.5-10.2-29.2-16.2c-0.5,2.7-1.1,5.4-1.9,8.1c-3.9,14.1-1.8,8.8-2.1,8
						c8.9,5.3,17.9,10.3,26.7,14.3c1.1,0.5,2.2,0.8,3.3,0.8c2.9,0,5.8-1.8,7.1-4.6C602.2,86,600.4,81.3,596.5,79.5z"/>
				</g>
			</g>
			<g>
				<path style="fill:#412312;" d="M344.4-4.9c8,2,20.9,5.3,32.8,10.8c-1,2.7-2.8,8.2-4.3,15.5c-7.9-3.9-18.5-7.6-32.3-11.1
					c-4.2-1.1-6.8-5.4-5.7-9.6C335.9-3.4,340.2-6,344.4-4.9z"/>
				<g>
					<path style="fill:#412312;" d="M372.3,150.7c5.1-11.2,12.1-26.2,22.1-36.5l0,0l0,0c4.1,5.5,7.8,9.4,10.4,11.9
						c-7.7,8.4-13.9,22-18.1,31.2l-0.3,0.8c-1.3,2.8-4.2,4.6-7.2,4.6c-1.1,0-2.2-0.2-3.2-0.7c-3.9-1.8-5.7-6.5-3.9-10.4L372.3,150.7
						z"/>
					<path style="fill:#412312;" d="M343.1,79.5c9.4-4.4,19.5-10.2,29.2-16.2c0.5,2.7,1.1,5.4,1.9,8.1c3.9,14.1,1.8,8.9,2.1,8
						c-8.9,5.3-17.9,10.3-26.7,14.3c-1.1,0.5-2.2,0.8-3.3,0.8c-2.9,0-5.8-1.8-7.1-4.6C337.4,86,339.2,81.3,343.1,79.5z"/>
				</g>
			</g>
			<path style="fill:#C03826;" d="M473.5,121.7V7.8c32-1,61.1-8.3,82.8-19.8c3.1,5.5,5.8,11.2,8,17.2c0.1,0,0.1,0,0.2-0.1
				c1.3,3.4,3,8.7,4.4,15.8l0,0c0.1,0.4,0.1,0.7,0.2,1.1c1.8,9.8,2.9,22.7,1.3,38.2c-3.8,36-23.6,59.2-34.7,69.6
				c-7.9,7.3-16.8,13.2-26.6,17.6c-14-0.8-24.3-4.6-30.1-11.1C472.9,129.4,473.5,121.8,473.5,121.7z M520.6,99.6
				c9.7,0,17.6-7.9,17.6-17.6c0-9.8-7.9-17.7-17.6-17.7c-9.8,0-17.7,7.9-17.7,17.7C502.9,91.7,510.8,99.6,520.6,99.6z M502.9,51.6
				c7.9,0,14.3-6.4,14.3-14.3c0-7.8-6.4-14.3-14.3-14.3s-14.3,6.5-14.3,14.3C488.6,45.2,495,51.6,502.9,51.6z"/>
			<path style="opacity:0.25;fill:#010101;enable-background:new    ;" d="M508.6-56.3c1-3.6,1.8-7.3,2.4-10.9
				c2.8-14.5,5.3-23.6,16.7-27.5c4.1-1.4,6.3-5.9,4.9-10c-1.4-4.1-6-6.3-10.1-4.9c-20.8,7.2-24.3,25.8-26.9,39.4
				c-0.6,3.1-1,5.8-1.7,8.2c-6.7-2-12.9-3.1-20.9-3.4V-2c1,0,0.6,0,0.9,0c29.7,0,56.9-5.5,78.1-14.7C541.3-34,526.3-47.8,508.6-56.3
				z"/>
		</g>
	</g>
	<path style="fill:#22B99A;" d="M345.6,217.7L650.5-83.2c-5.6-6.4-11.5-12.4-17.8-18.1L327.3,200.1
		C333,206.3,339.2,212.2,345.6,217.7z"/>
</g>
</svg>
