<?xml version="1.0" encoding="utf-8"?>
<!-- Generator: Adobe Illustrator 19.0.0, SVG Export Plug-In . SVG Version: 6.00 Build 0)  -->
<svg version="1.1" id="Layer_1" xmlns="http://www.w3.org/2000/svg" xmlns:xlink="http://www.w3.org/1999/xlink" x="0px" y="0px"
	 viewBox="0 0 315 132" style="enable-background:new 0 0 315 132;" xml:space="preserve">
<path id="XMLID_40_" style="fill:#FFFFFF;" d="M57.6,25.9c-27,0-49,22-49,49c0,27,22,49,49,49h204.1c27,0,49-22,49-49
	c0-27-22-49-49-49H57.6z"/>
<path id="XMLID_37_" style="fill:#C7C8CA;" d="M261.7,128H57.6c-29.3,0-53.1-23.8-53.1-53.1s23.8-53.1,53.1-53.1h204.1
	c29.3,0,53.1,23.8,53.1,53.1S291,128,261.7,128 M57.6,25.9c-27,0-49,22-49,49c0,27,22,49,49,49h204.1c27,0,49-22,49-49
	c0-27-22-49-49-49H57.6z"/>
<path id="XMLID_34_" d="M237.2,45.1c-7.9,0-14.3,6.4-14.3,14.4c0,7.9,6.4,14.3,14.3,14.3c7.9,0,14.3-6.4,14.3-14.3
	C251.6,51.6,245.2,45.1,237.2,45.1 M237.2,66.8c-4.1,0-7.4-3.3-7.4-7.4c0-4.1,3.3-7.4,7.4-7.4c4.1,0,7.4,3.3,7.4,7.4
	C244.6,63.6,241.3,66.8,237.2,66.8"/>
<path id="XMLID_31_" d="M171.4,45.1c-7.9,0-14.3,6.4-14.3,14.4c0,7.9,6.4,14.3,14.3,14.3c7.9,0,14.4-6.4,14.4-14.3
	C185.8,51.6,179.4,45.1,171.4,45.1 M171.4,66.8c-4.1,0-7.4-3.3-7.4-7.4c0-4.1,3.3-7.4,7.4-7.4c4.1,0,7.4,3.3,7.4,7.4
	C178.8,63.6,175.5,66.8,171.4,66.8"/>
<path id="XMLID_30_" d="M222,67.2c-0.9,0.3-2.3,0.5-2.8,0.5c-2.5,0-3-0.8-3-3.2V51.3h5.9v-5.5h-5.9V38h-6.6l-1.4,7.8h-4.6v0h-0.4
	c-3.8,0-6.6,2.3-8.4,5.9l-2.3-5.9h-4.7v27.5h8.1v-12c0-6,3.6-9.9,7.8-10h4.4V65c0,6.4,3.3,8.8,8.7,8.8c2.8,0,4.9-0.6,6.2-1L222,67.2
	z"/>
<polyline id="XMLID_29_" points="261.4,54.5 261.4,73.3 253.5,73.3 253.5,45.8 258.3,45.8 259.9,50 "/>
<path id="XMLID_28_" d="M259.9,50c2.4-2.8,5.7-4.9,9.5-4.9c6.6,0,9.2,5.2,9.2,10.1v18.1h-8.1V55.4c0-2.4-2-3.6-4.1-3.6
	c-2.3,0-3.7,1.3-5,2.7"/>
<polygon id="XMLID_27_" points="125.5,35.8 134.5,35.8 146.9,59.4 146.9,35.8 154.4,35.8 154.4,73.3 146.2,73.3 133,47.4 133,73.3 
	125.5,73.3 "/>
<path id="XMLID_26_" style="fill:#A7A9AC;" d="M123.3,106.5l1.9-2.9c1.5,1.1,3.8,2.2,6.6,2.2c2.7,0,4.4-1.2,4.4-3.4
	c0-2.4-2.1-3.1-5.6-4.3c-3.1-1.1-6.2-2.7-6.2-7.1c0-4.1,3.3-6.4,7.6-6.4c2.9,0,5.1,0.6,6.8,1.6l-1.5,3.1c-1.4-0.8-3.2-1.3-5.2-1.3
	c-2.4,0-3.9,0.9-3.9,2.9c0,2.3,1.7,2.8,4.9,3.9c3.3,1.1,7,2.6,7,7.5c0,4.1-2.9,6.8-8.2,6.8C127.9,109.2,125,107.9,123.3,106.5"/>
<polygon id="XMLID_25_" style="fill:#A7A9AC;" points="147.1,85.1 161.3,85.1 161.3,88.4 151.2,88.4 151.2,94.9 159.2,94.9 
	159.2,98.1 151.2,98.1 151.2,105.6 161.9,105.6 161.9,108.9 147.1,108.9 "/>
<path id="XMLID_24_" style="fill:#A7A9AC;" d="M167.7,97c0-7,3.3-12.3,10-12.3c3,0,5.3,0.9,7,2.9l-2.4,2.7c-1.4-1.4-2.6-2.1-4.6-2.1
	c-3.9,0-5.7,3.2-5.7,9.1c0,5.5,1.9,8.3,5.7,8.3c2.1,0,3.6-1.1,4.9-2.5l2.4,2.6c-1.7,2-3.9,3.4-7.4,3.4
	C170.9,109.2,167.7,104,167.7,97"/>
<path id="XMLID_23_" style="fill:#A7A9AC;" d="M191.7,99.8V85.1h4.1v15.4c0,3.3,0.8,5.4,4.3,5.4c3.4,0,4.3-2.1,4.3-5.4V85.1h4.1
	v14.7c0,5.9-2.3,9.4-8.4,9.4C193.9,109.2,191.7,105.7,191.7,99.8"/>
<path id="XMLID_20_" style="fill:#A7A9AC;" d="M233.2,108.9h-4.4l-4.6-10.1h-3.8v10.1h-4V85.1h7.8c4.8,0,8.6,1.7,8.6,6.9
	c0,3.6-2.1,5.4-4.5,6.2L233.2,108.9z M224.1,95.7c3,0,4.6-1,4.6-3.7c0-2.6-1.6-3.6-4.3-3.6h-3.8v7.3H224.1z"/>
<polygon id="XMLID_19_" style="fill:#A7A9AC;" points="240.1,85.1 254.3,85.1 254.3,88.4 244.2,88.4 244.2,94.9 252.2,94.9 
	252.2,98.1 244.2,98.1 244.2,105.6 254.9,105.6 254.9,108.9 240.1,108.9 "/>
<path id="XMLID_16_" style="fill:#A7A9AC;" d="M261.7,85.1h5.9c7.8,0,11.5,4.2,11.5,11.8c0,7.8-3.8,12-11.3,12h-6.2V85.1z
	 M267.4,105.6c5.6,0,7.5-2.6,7.5-8.7c0-5.4-1.5-8.5-7-8.5h-2.2v17.2H267.4z"/>
<path id="XMLID_13_" style="fill:#FFC20E;" d="M57.4,132.2c-31.6,0-57.3-25.7-57.3-57.3c0-31.6,25.7-57.3,57.3-57.3
	c31.6,0,57.3,25.7,57.3,57.3C114.7,106.5,89,132.2,57.4,132.2 M57.4,35.7c-10.5,0-20.3,4.1-27.7,11.5c-7.4,7.4-11.5,17.2-11.5,27.7
	c0,10.5,4.1,20.3,11.5,27.7c7.4,7.4,17.2,11.5,27.7,11.5c10.5,0,20.3-4.1,27.7-11.5c7.4-7.4,11.5-17.2,11.5-27.7
	c0-10.5-4.1-20.3-11.5-27.7C77.7,39.8,67.9,35.7,57.4,35.7"/>
<rect id="XMLID_12_" x="119.8" y="8.7" style="fill:#FFC20E;" width="4.5" height="4.5"/>
<rect id="XMLID_11_" x="119.8" y="-0.2" style="fill:#FFC20E;" width="4.5" height="4.5"/>
<rect id="XMLID_10_" x="107.3" y="13.2" style="fill:#FFC20E;" width="4.2" height="4.4"/>
<rect id="XMLID_9_" x="99" y="21.7" width="4.2" height="4.2"/>
<rect id="XMLID_8_" x="111.4" y="17.5" width="4.7" height="4.2"/>
<rect id="XMLID_7_" x="94.8" y="17.7" width="4.2" height="4"/>
<rect id="XMLID_6_" x="107.3" y="21.7" width="4.2" height="4.2"/>
<rect id="XMLID_5_" x="115.4" y="4.3" width="4.4" height="4.4"/>
<rect id="XMLID_4_" x="107.3" y="8.7" width="8.2" height="4.4"/>
<rect id="XMLID_3_" x="103.2" y="13.2" width="4.1" height="8.6"/>
<path id="XMLID_2_" d="M103.2,25.9v4.2H99v-4.2h-7v3h-3.7v3.7h4.2v4.2h-4.2v-4.2h-4.4v6.5h-4.2v4.2h-2.8v4.2h-3.1
	c-3.4,5.1-12.1,21.1-14.7,27.6C49.7,62.1,42.4,56.9,36.6,55c-3.1-0.9-6.8,2.4-1.7,7.8c11.8,13,15.6,23.8,19.2,32.4
	c1.9,4.5,10.4,5.2,12.1,0.6C69.9,86,75.2,75,81.4,66v-4.7h3.3v-4.2h3.5v-4.9h4.2v-4.7h-4.2v-4.3h4.2v4.3h4.1l0-4.2h3.3v-5.1h3.7
	v-3.5h3.6v-8.9H103.2z"/>
</svg>
