<?xml version="1.0" encoding="utf-8"?>
<!-- Generator: Adobe Illustrator 19.0.0, SVG Export Plug-In . SVG Version: 6.00 Build 0)  -->
<svg version="1.1" id="Capa_1" xmlns="http://www.w3.org/2000/svg" xmlns:xlink="http://www.w3.org/1999/xlink" x="0px" y="0px"
	 viewBox="95 -4.1 309.1 309.1" style="enable-background:new 95 -4.1 309.1 309.1;" xml:space="preserve">
<style type="text/css">
	.st0-ico-rocket{fill:none;stroke:#000000;stroke-width:16;stroke-miterlimit:10;}
</style>
<path d="M124,173.6c22.9-32.9,36.3-54.1,46.1-69.8c-37.7,3.3-73.8,50.2-73.8,50.2l24.9,24.9C121.9,177.1,122.9,175.3,124,173.6z"/>
<path d="M221.1,278.8l24.9,24.9c0,0,46.9-36.1,50.2-73.8c-15.7,9.8-36.9,23.2-69.8,46.1C224.8,277.1,223,278.1,221.1,278.8z"/>
<path d="M183.3,266c-4.3,1.7-8.5,3.6-12.8,5c-11.7,3.9-23.7,6.5-35.9,8.2c-5.1,0.7-10.3,1.3-15.4,1.7c0-0.6,0.1-1.3,0.2-1.9
	c1.1-12.4,3-24.8,6-36.9c1.5-5.8,3.3-11.5,5.4-17.2c1.3-3.5,2.8-6.9,4.4-10.3l-2.7-2.7c-6.1,4.1-11.4,9.2-15.9,15.1
	c-6.6,8.6-11.6,18.4-15.1,28.8c-3.7,11.1-6,22.8-6.3,34.5c0,1.6-0.2,3.3,0.1,5c0.3,2.1,1.3,4.1,2.6,5.7c1.4,1.6,3.2,2.8,5.2,3.5
	c1.7,0.5,3.4,0.6,5.1,0.5c10.6-0.1,21.4-1.9,31.6-5c18.6-5.5,37.4-15.9,48.4-32.4l-2.7-2.7C184.7,265.3,184,265.7,183.3,266z"/>
<g>
	<path d="M390.3,9.8l4.6-6.2l0,0L390.3,9.8l5.5-5.5c-3.4-3.4-8-5.3-12.7-5.3h0l-0.2,0l0,0l0,0c-17,0.3-46.2,2.1-77.1,9.3
		C290.1,12,274.3,17,259.3,24c-14.9,7-29,16-40.7,27.7c-5,5-9.2,9.5-13,13.7c-5.6,6.4-10.1,12.2-14.5,18.6
		c-4.4,6.4-8.6,13.2-13.9,21.6l0,0c-5.1,8.1-11,17.7-18.9,29.7c-7.9,12.1-17.6,26.7-30.3,44.9l0,0c-2.2,3.1-3.2,6.7-3.2,10.3
		c0,2.3,0.4,4.6,1.3,6.8c0.9,2.2,2.2,4.2,4,5.9l0,0l66.5,66.5l0,0c1.7,1.7,3.8,3.1,5.9,4c2.2,0.9,4.5,1.3,6.8,1.3
		c3.6,0,7.2-1.1,10.3-3.2l0,0c18.2-12.6,32.8-22.4,44.9-30.3c12.1-7.9,21.6-13.8,29.7-18.9l0,0c5.6-3.5,10.5-6.6,15.1-9.5
		c6.8-4.4,12.8-8.6,18.9-13.6c6.1-5,12.4-10.7,20-18.2c11.7-11.7,20.7-25.8,27.7-40.7c10.5-22.4,16.6-46.9,20.1-68.9
		c3.5-22,4.6-41.6,4.8-54.4l0,0c0-0.1,0-0.2,0-0.4c0-4.8-1.9-9.4-5.3-12.7l-0.4-0.4l-0.4-0.3L390.3,9.8l-5.5,5.5
		c0.5,0.5,0.8,1.2,0.8,1.8l0,0.1l0,0c-0.3,16.2-2,44.5-8.9,73.8c-3.4,14.6-8.2,29.5-14.6,43.2c-6.4,13.7-14.5,26.2-24.6,36.3
		c-4.8,4.8-9.1,8.8-13,12.3c-5.9,5.2-11.2,9.2-17.1,13.3c-5.9,4.1-12.6,8.2-21,13.5l0,0c-8.1,5.1-17.8,11.1-30,19
		c-12.2,7.9-27,17.8-45.3,30.5l0,0c-0.5,0.3-1,0.5-1.5,0.5c-0.3,0-0.7-0.1-1-0.2c-0.3-0.1-0.6-0.3-0.9-0.6l-66.5-66.5l0,0
		c-0.3-0.3-0.4-0.5-0.6-0.9c-0.1-0.3-0.2-0.6-0.2-1c0-0.5,0.1-1,0.5-1.5l0,0c12.7-18.3,22.6-33,30.5-45.3c7.9-12.2,14-21.9,19-30
		l0,0c3.5-5.6,6.5-10.5,9.4-14.8c4.3-6.5,8.1-12,12.6-17.6c4.6-5.6,9.9-11.5,17.2-18.8c10.1-10.1,22.6-18.2,36.3-24.6
		c20.5-9.6,43.7-15.5,64.8-18.9c21.1-3.4,40-4.4,52.2-4.7l-0.2-7.7l0.1,7.7l0.2,0l-0.1,0c0.7,0,1.3,0.3,1.8,0.8l0.4,0.4l0.4,0.3
		L390.3,9.8l-5.5,5.5L390.3,9.8z"/>
</g>
<path class="st0-ico-rocket" d="M313.2,135.2c-13.4,13.4-35.1,13.4-48.5,0c-13.4-13.4-13.4-35.1,0-48.5c13.4-13.4,35.1-13.4,48.5,0
	C326.6,100.1,326.6,121.9,313.2,135.2z"/>
</svg>
