<?xml version="1.0" encoding="utf-8"?>
<!-- Generator: Adobe Illustrator 19.0.0, SVG Export Plug-In . SVG Version: 6.00 Build 0)  -->
<svg version="1.1" id="Layer_1" xmlns="http://www.w3.org/2000/svg" xmlns:xlink="http://www.w3.org/1999/xlink" x="0px" y="0px"
	 viewBox="0 0 32 32" style="enable-background:new 0 0 32 32;" xml:space="preserve">

<g id="XMLID_19_">
	<g id="XMLID_20_">
		<g id="XMLID_21_">
			<path id="XMLID_22_" d="M17.4,19.5c-0.4,0.5-0.9,0.8-1.5,0.8c-0.6,0-1.2-0.2-1.6-0.7l-3.6-4
				c-0.6-0.6-0.5-1.6,0.1-2.2c0.6-0.6,1.6-0.5,2.2,0.1l2.5,2.8c0,0,0.1,0.1,0.1,0.1c0.1,0,0.1,0,0.1-0.1l5.2-7
				c0.5-0.7,1.5-0.8,2.1-0.3c0.7,0.5,0.8,1.5,0.3,2.1L17.4,19.5z M17.4,19.5"/>
		</g>
	</g>
	<path id="XMLID_54_" d="M16.4,0.1l-13.2,4v10c0,6.5,5.4,13.5,13.2,17.7c7.9-4.2,13.2-11.2,13.2-17.7v-10L16.4,0.1z M27.6,14.1
		c0,5.4-4.5,11.5-11.2,15.4c-6.8-3.9-11.2-10-11.2-15.4V5.6l11.2-3.4l11.2,3.4V14.1z"/>
</g>
</svg>
