<?xml version="1.0" encoding="utf-8"?>
<!-- Generator: Adobe Illustrator 19.0.0, SVG Export Plug-In . SVG Version: 6.00 Build 0)  -->
<svg version="1.1" id="Layer_1" xmlns="http://www.w3.org/2000/svg" xmlns:xlink="http://www.w3.org/1999/xlink" x="0px" y="0px"
	 viewBox="0 0 800 606" style="enable-background:new 0 0 800 606;" xml:space="preserve">
<g id="XMLID_13_">
	<g id="XMLID_58_">
		<path id="XMLID_59_" style="fill:#BCBEC0;" d="M561.6,516.7l0.8,0.6c24.4-33.3,38.8-74.3,38.8-118.7c0-111-90-201-201-201
			c-111,0-201,90-201,201c0,44.4,14.4,85.4,38.8,118.7l0.3,0.4h323.9l0.3-0.4L561.6,516.7v-1H238.7v1l0.8-0.6
			c-24.1-32.9-38.4-73.5-38.4-117.5c0-55,22.3-104.7,58.3-140.7c36-36,85.8-58.3,140.7-58.3c55,0,104.7,22.3,140.7,58.3
			c36,36,58.3,85.8,58.3,140.7c0,43.9-14.3,84.5-38.4,117.5L561.6,516.7v-1V516.7z"/>
	</g>
	<path id="XMLID_55_" style="fill:#E6E7E8;" d="M95,573c-29.2-51.1-45.8-110.2-45.8-173.3c0-193.3,156.7-350,350-350
		c193.3,0,350,156.7,350,350c0,63-16.7,122.2-45.8,173.3l8.7,5c30-52.6,47.2-113.4,47.2-178.3c0-198.8-161.2-360-360-360
		s-360,161.2-360,360c0,64.9,17.2,125.7,47.2,178.3L95,573z"/>
	<linearGradient id="XMLID_2_" gradientUnits="userSpaceOnUse" x1="-0.8479" y1="302.4751" x2="799.1521" y2="302.4751">
		<stop  offset="0" style="stop-color:#00A651"/>
		<stop  offset="0.5" style="stop-color:#F7941E"/>
		<stop  offset="1" style="stop-color:#ED1C24"/>
	</linearGradient>
	<path id="XMLID_61_" style="fill:url(#XMLID_2_);" d="M399.2-0.3c-220.9,0-400,179.1-400,400c0,72.2,19.1,139.8,52.5,198.3l0.3-0.2
		c1.1,4.3,5,7.5,9.7,7.5c5.5,0,10-4.5,10-10c0-2.8-1.1-5.3-3-7.1L69,588c-31.7-55.5-49.9-119.8-49.9-188.3
		c0-209.9,170.1-380,380-380c209.9,0,380,170.1,380,380c0,68.5-18.1,132.8-49.9,188.3l0.3,0.2c-1.8,1.8-3,4.3-3,7.1
		c0,5.5,4.5,10,10,10c4.6,0,8.5-3.2,9.7-7.5l0.3,0.2c33.4-58.4,52.5-126.1,52.5-198.3C799.2,178.8,620.1-0.3,399.2-0.3z"/>
</g>
</svg>
