<?xml version="1.0" encoding="utf-8"?>
<!-- Generator: Adobe Illustrator 19.0.0, SVG Export Plug-In . SVG Version: 6.00 Build 0)  -->
<svg version="1.1" id="Layer_1" xmlns="http://www.w3.org/2000/svg" xmlns:xlink="http://www.w3.org/1999/xlink" x="0px" y="0px"
	 viewBox="0 0 823 172" style="enable-background:new 0 0 823 172;" xml:space="preserve">
<g id="XMLID_2_">
	<g id="XMLID_3_">
		<path id="XMLID_4_" style="fill:#585A5C;" d="M73.9,50.7c-0.5-10.9-1.1-24-1-35.4h-0.4c-2.8,10.3-6.3,21.6-10,32.3L50.2,84.1H38.4
			l-11.3-36c-3.3-10.8-6.3-22.3-8.5-32.8h-0.3c-0.4,11-0.9,24.4-1.5,35.9L15,85.1H0.6L6.2,0.9h20.3l11,33.9c3,9.9,5.6,19.9,7.8,29.3
			h0.4c2.3-9.1,5.1-19.5,8.4-29.4L65.6,0.9h20l4.9,84.3h-15L73.9,50.7z"/>
		<path id="XMLID_6_" style="fill:#585A5C;" d="M122.3,61.3L115,85.1H99.1l27-84.3h19.6l27.4,84.3h-16.5L149,61.3H122.3z
			 M146.4,49.6l-6.6-20.8c-1.6-5.1-3-10.9-4.3-15.8h-0.3c-1.3,4.9-2.5,10.8-4,15.8l-6.5,20.8H146.4z"/>
		<path id="XMLID_9_" style="fill:#585A5C;" d="M242.7,82.6c-3.6,1.9-11.6,3.8-21.8,3.8c-26.8,0-43-16.8-43-42.4
			c0-27.8,19.3-44.5,45-44.5c10.1,0,17.4,2.1,20.5,3.8l-3.4,12.3c-4-1.8-9.5-3.3-16.5-3.3c-17.1,0-29.5,10.8-29.5,31
			c0,18.5,10.9,30.4,29.4,30.4c6.3,0,12.8-1.3,16.8-3.1L242.7,82.6z"/>
		<path id="XMLID_11_" style="fill:#585A5C;" d="M342.1,82.6c-3.6,1.9-11.6,3.8-21.8,3.8c-26.8,0-43-16.8-43-42.4
			c0-27.8,19.3-44.5,45-44.5c10.1,0,17.4,2.1,20.5,3.8l-3.4,12.3c-4-1.8-9.5-3.3-16.5-3.3c-17.1,0-29.5,10.8-29.5,31
			c0,18.5,10.9,30.4,29.4,30.4c6.3,0,12.8-1.3,16.8-3.1L342.1,82.6z"/>
		<path id="XMLID_13_" style="fill:#585A5C;" d="M402.4,47.7h-31.8v24.8h35.5v12.6h-50.9V0.9h49v12.6h-33.6v21.8h31.8V47.7z"/>
		<path id="XMLID_15_" style="fill:#585A5C;" d="M419.6,2c5.8-1,14.4-1.8,23.3-1.8c12.1,0,20.4,2,26,6.8c4.6,3.9,7.3,9.8,7.3,16.9
			c0,10.9-7.4,18.3-15.3,21.1v0.4c6,2.3,9.6,8.1,11.8,16.3c2.6,10.5,4.9,20.3,6.6,23.5h-15.9c-1.3-2.5-3.3-9.4-5.6-19.9
			c-2.4-11-6.4-14.5-15.1-14.8h-7.8v34.6h-15.3V2z M434.9,39.2h9.1c10.4,0,16.9-5.5,16.9-13.9c0-9.3-6.5-13.5-16.5-13.5
			c-4.9,0-8,0.4-9.5,0.7V39.2z"/>
		<path id="XMLID_18_" style="fill:#585A5C;" d="M507.5,13.7h-24V0.9h63.7v12.9h-24.3v71.4h-15.4V13.7z"/>
		<path id="XMLID_20_" style="fill:#585A5C;" d="M572.4,0.9v84.3h-15.4V0.9H572.4z"/>
		<path id="XMLID_22_" style="fill:#585A5C;" d="M590.1,0.9h48.6v12.6h-33.3v23.3h31v12.6h-31v35.8h-15.4V0.9z"/>
		<path id="XMLID_24_" style="fill:#585A5C;" d="M669.1,0.9v84.3h-15.4V0.9H669.1z"/>
		<path id="XMLID_26_" style="fill:#585A5C;" d="M733.9,47.7h-31.8v24.8h35.5v12.6h-50.9V0.9h49v12.6h-33.6v21.8h31.8V47.7z"/>
		<path id="XMLID_28_" style="fill:#585A5C;" d="M751.1,2c6.8-1.1,15.4-1.8,24.5-1.8c15.8,0,26.6,3.3,34.4,9.8
			c8.1,6.6,13.1,16.6,13.1,31c0,15-5.1,26.3-13.1,33.5c-8.4,7.6-21.8,11.5-38.1,11.5c-9,0-15.8-0.5-20.8-1.1V2z M766.5,73.4
			c2.1,0.4,5.4,0.4,8.5,0.4c20,0.1,31.9-10.9,31.9-32.3c0.1-18.6-10.6-29.3-29.9-29.3c-4.9,0-8.4,0.4-10.5,0.9V73.4z"/>
	</g>
	<g id="XMLID_1_">
		<path id="XMLID_31_" style="fill:#585A5C;" d="M3.3,161c2.9,1.7,7.2,3.1,11.7,3.1c5.7,0,8.8-2.7,8.8-6.6c0-3.7-2.4-5.8-8.6-8
			c-8-2.9-13.1-7.1-13.1-14.1c0-7.9,6.6-13.9,17.1-13.9c5.2,0,9.1,1.1,11.6,2.4l-2.2,7.1c-1.7-0.9-5.1-2.3-9.6-2.3c-5.6,0-8,3-8,5.8
			c0,3.7,2.8,5.5,9.3,8c8.4,3.2,12.5,7.4,12.5,14.4c0,7.8-5.9,14.5-18.4,14.5c-5.1,0-10.4-1.4-13.1-3L3.3,161z"/>
		<path id="XMLID_33_" style="fill:#585A5C;" d="M49.5,122.2v28.2c0,9.5,3.9,13.9,9.9,13.9c6.4,0,10.2-4.4,10.2-13.9v-28.2h8.8v27.6
			c0,14.9-7.7,21.5-19.3,21.5c-11.2,0-18.4-6.2-18.4-21.5v-27.7H49.5z"/>
		<path id="XMLID_35_" style="fill:#585A5C;" d="M88.6,122.9c3.2-0.6,7.5-1,13.5-1c6.5,0,11.2,1.4,14.3,3.9
			c2.9,2.4,4.7,6.2,4.7,10.7c0,4.6-1.4,8.4-4.2,11c-3.5,3.5-9,5.2-15.3,5.2c-1.7,0-3.2-0.1-4.3-0.3v18.2h-8.8V122.9z M97.3,145.4
			c1.1,0.3,2.5,0.4,4.3,0.4c6.6,0,10.6-3.2,10.6-8.9c0-5.4-3.7-8.3-9.8-8.3c-2.4,0-4.2,0.2-5.1,0.4V145.4z"/>
		<path id="XMLID_38_" style="fill:#585A5C;" d="M128.7,122.9c3.2-0.6,7.5-1,13.5-1c6.5,0,11.2,1.4,14.3,3.9
			c2.9,2.4,4.7,6.2,4.7,10.7c0,4.6-1.4,8.4-4.2,11c-3.5,3.5-9,5.2-15.3,5.2c-1.7,0-3.2-0.1-4.3-0.3v18.2h-8.8V122.9z M137.4,145.4
			c1.1,0.3,2.5,0.4,4.3,0.4c6.6,0,10.6-3.2,10.6-8.9c0-5.4-3.7-8.3-9.8-8.3c-2.4,0-4.2,0.2-5.1,0.4V145.4z"/>
		<path id="XMLID_41_" style="fill:#585A5C;" d="M211.7,145.9c0,16.2-9.8,25.5-23.2,25.5c-13.6,0-22.2-10.4-22.2-24.6
			c0-14.9,9.3-25.3,23-25.3C203.4,121.4,211.7,132.1,211.7,145.9z M175.6,146.6c0,9.8,5,17.7,13.4,17.7c8.5,0,13.3-7.9,13.3-18
			c0-9.1-4.5-17.7-13.3-17.7C180.3,128.5,175.6,136.7,175.6,146.6z"/>
		<path id="XMLID_44_" style="fill:#585A5C;" d="M219.3,122.9c3.3-0.6,8.3-1,13.3-1c7,0,11.7,1.1,14.9,3.9c2.7,2.2,4.2,5.6,4.2,9.7
			c0,6.2-4.2,10.5-8.8,12.1v0.2c3.4,1.3,5.5,4.7,6.7,9.3c1.5,6,2.8,11.6,3.8,13.5h-9.1c-0.7-1.4-1.9-5.4-3.2-11.4
			c-1.4-6.3-3.7-8.3-8.7-8.5h-4.4v19.9h-8.8V122.9z M228.1,144.3h5.2c6,0,9.7-3.2,9.7-8c0-5.3-3.7-7.8-9.5-7.8
			c-2.8,0-4.6,0.2-5.5,0.4V144.3z"/>
		<path id="XMLID_47_" style="fill:#585A5C;" d="M269.8,129.6H256v-7.4h36.5v7.4h-13.9v41h-8.8V129.6z"/>
		<path id="XMLID_49_" style="fill:#585A5C;" d="M313,122.9c3.2-0.6,7.5-1,13.5-1c6.5,0,11.2,1.4,14.3,3.9c2.9,2.4,4.7,6.2,4.7,10.7
			c0,4.6-1.4,8.4-4.2,11c-3.5,3.5-9,5.2-15.3,5.2c-1.7,0-3.2-0.1-4.3-0.3v18.2H313V122.9z M321.8,145.4c1.1,0.3,2.5,0.4,4.3,0.4
			c6.6,0,10.6-3.2,10.6-8.9c0-5.4-3.7-8.3-9.8-8.3c-2.4,0-4.2,0.2-5.1,0.4V145.4z"/>
		<path id="XMLID_52_" style="fill:#585A5C;" d="M353.2,122.9c3.3-0.6,8.3-1,13.3-1c7,0,11.7,1.1,14.9,3.9c2.7,2.2,4.2,5.6,4.2,9.7
			c0,6.2-4.2,10.5-8.8,12.1v0.2c3.4,1.3,5.5,4.7,6.7,9.3c1.5,6,2.8,11.6,3.8,13.5h-9.1c-0.7-1.4-1.9-5.4-3.2-11.4
			c-1.4-6.3-3.7-8.3-8.7-8.5h-4.4v19.9h-8.8V122.9z M361.9,144.3h5.2c6,0,9.7-3.2,9.7-8c0-5.3-3.7-7.8-9.5-7.8
			c-2.8,0-4.6,0.2-5.5,0.4V144.3z"/>
		<path id="XMLID_55_" style="fill:#585A5C;" d="M436.9,145.9c0,16.2-9.8,25.5-23.2,25.5c-13.6,0-22.2-10.4-22.2-24.6
			c0-14.9,9.3-25.3,23-25.3C428.6,121.4,436.9,132.1,436.9,145.9z M400.8,146.6c0,9.8,5,17.7,13.4,17.7c8.5,0,13.3-7.9,13.3-18
			c0-9.1-4.5-17.7-13.3-17.7C405.5,128.5,400.8,136.7,400.8,146.6z"/>
		<path id="XMLID_58_" style="fill:#585A5C;" d="M444.5,122.2h27.9v7.2h-19.1v13.3h17.8v7.2h-17.8v20.5h-8.8V122.2z"/>
		<path id="XMLID_60_" style="fill:#585A5C;" d="M508.1,149.1h-18.2v14.2h20.4v7.2h-29.2v-48.4h28.1v7.2h-19.3V142h18.2V149.1z"/>
		<path id="XMLID_62_" style="fill:#585A5C;" d="M517.8,161c2.9,1.7,7.2,3.1,11.7,3.1c5.7,0,8.8-2.7,8.8-6.6c0-3.7-2.4-5.8-8.6-8
			c-8-2.9-13.1-7.1-13.1-14.1c0-7.9,6.6-13.9,17.1-13.9c5.2,0,9.1,1.1,11.6,2.4l-2.2,7.1c-1.7-0.9-5.1-2.3-9.6-2.3c-5.6,0-8,3-8,5.8
			c0,3.7,2.8,5.5,9.3,8c8.4,3.2,12.5,7.4,12.5,14.4c0,7.8-5.9,14.5-18.4,14.5c-5.1,0-10.4-1.4-13.1-3L517.8,161z"/>
		<path id="XMLID_64_" style="fill:#585A5C;" d="M555.1,161c2.9,1.7,7.2,3.1,11.7,3.1c5.7,0,8.8-2.7,8.8-6.6c0-3.7-2.4-5.8-8.6-8
			c-8-2.9-13.1-7.1-13.1-14.1c0-7.9,6.6-13.9,17.1-13.9c5.2,0,9.1,1.1,11.6,2.4l-2.2,7.1c-1.7-0.9-5.1-2.3-9.6-2.3c-5.6,0-8,3-8,5.8
			c0,3.7,2.8,5.5,9.3,8c8.4,3.2,12.5,7.4,12.5,14.4c0,7.8-5.9,14.5-18.4,14.5c-5.1,0-10.4-1.4-13.1-3L555.1,161z"/>
		<path id="XMLID_66_" style="fill:#585A5C;" d="M601.4,122.2v48.4h-8.8v-48.4H601.4z"/>
		<path id="XMLID_68_" style="fill:#585A5C;" d="M654.4,145.9c0,16.2-9.8,25.5-23.2,25.5c-13.6,0-22.2-10.4-22.2-24.6
			c0-14.9,9.3-25.3,23-25.3C646.1,121.4,654.4,132.1,654.4,145.9z M618.3,146.6c0,9.8,5,17.7,13.4,17.7c8.5,0,13.3-7.9,13.3-18
			c0-9.1-4.5-17.7-13.3-17.7C623,128.5,618.3,136.7,618.3,146.6z"/>
		<path id="XMLID_71_" style="fill:#585A5C;" d="M662,170.6v-48.4h10l12.5,20.7c3.2,5.4,6,11,8.3,16.2h0.1
			c-0.6-6.5-0.8-12.7-0.8-20.1v-16.9h8.2v48.4h-9.1l-12.6-21.2c-3.1-5.3-6.3-11.3-8.7-16.7l-0.2,0.1c0.4,6.2,0.4,12.6,0.4,20.6v17.3
			H662z"/>
		<path id="XMLID_73_" style="fill:#585A5C;" d="M720.2,156.9l-4.2,13.7h-9.1l15.5-48.4h11.3l15.7,48.4h-9.5l-4.4-13.7H720.2z
			 M734.1,150.2l-3.8-11.9c-0.9-2.9-1.7-6.2-2.4-9h-0.1c-0.7,2.8-1.4,6.2-2.3,9l-3.7,11.9H734.1z"/>
		<path id="XMLID_76_" style="fill:#585A5C;" d="M756.2,122.2h8.8v41h19.9v7.4h-28.7V122.2z"/>
		<path id="XMLID_78_" style="fill:#585A5C;" d="M791.3,161c2.9,1.7,7.2,3.1,11.7,3.1c5.7,0,8.8-2.7,8.8-6.6c0-3.7-2.4-5.8-8.6-8
			c-8-2.9-13.1-7.1-13.1-14.1c0-7.9,6.6-13.9,17.1-13.9c5.2,0,9.1,1.1,11.6,2.4l-2.2,7.1c-1.7-0.9-5.1-2.3-9.6-2.3c-5.6,0-8,3-8,5.8
			c0,3.7,2.8,5.5,9.3,8c8.4,3.2,12.5,7.4,12.5,14.4c0,7.8-5.9,14.5-18.4,14.5c-5.1,0-10.4-1.4-13.1-3L791.3,161z"/>
	</g>
</g>
</svg>
