<?xml version="1.0" encoding="utf-8"?>
<!-- Generator: Adobe Illustrator 19.0.0, SVG Export Plug-In . SVG Version: 6.00 Build 0)  -->
<svg version="1.1" id="Layer_1" xmlns="http://www.w3.org/2000/svg" xmlns:xlink="http://www.w3.org/1999/xlink" x="0px" y="0px"
	 viewBox="0 0 32 32" style="enable-background:new 0 0 32 32;" xml:space="preserve">
		<path id="XMLID_59_" class="st0" d="M31.2,0.7c-0.7-0.7-1.9-0.7-2.6,0L18.4,10.9l-1.8-1.8c-0.6-0.6-1.6-0.6-2.2,0l-1.1,1.1
			c-2.7,0.6-5.3,1.3-8,1.9l-4.3,1c-0.4,0.1-0.6,0.3-0.8,0.7c-0.1,0.3-0.1,0.7,0.1,1c4.7,6.4,10.4,12,16.8,16.8
			c0.2,0.1,0.4,0.2,0.6,0.2c0.1,0,0.3,0,0.4-0.1c0.3-0.1,0.6-0.4,0.7-0.8l1.3-5.3c0.6-2.3,1.1-4.6,1.6-6.9l1.1-1.1
			c0.6-0.6,0.6-1.6,0-2.2l-1.8-1.8L31.2,3.4C32,2.6,32,1.5,31.2,0.7L31.2,0.7z M17.1,28.8c-0.9-0.7-1.8-1.4-2.6-2.1l1.4-4.1
			l-2.8,2.8c-1-0.9-2-1.8-3-2.8l1.4-2.3l-2.3,1.4c-0.9-0.9-1.8-1.8-2.6-2.8l2.9-2.9l-4.1,1.4c-0.8-0.9-1.5-1.9-2.3-2.8l9.7-2.3
			l6.6,6.6L17.1,28.8z M17.1,28.8"/>
</svg>
