<?xml version="1.0" encoding="utf-8"?>
<!-- Generator: Adobe Illustrator 19.0.0, SVG Export Plug-In . SVG Version: 6.00 Build 0)  -->
<svg version="1.1" id="Layer_1" xmlns="http://www.w3.org/2000/svg" xmlns:xlink="http://www.w3.org/1999/xlink" x="0px" y="0px"
	 viewBox="0 0 512 512" style="enable-background:new 0 0 512 512;" xml:space="preserve">
<g id="XMLID_7_">
	<path id="XMLID_14_" d="M256,2C115.7,2,2,115.7,2,256c0,140.3,113.7,254,254,254c140.3,0,254-113.7,254-254
		C510,115.7,396.3,2,256,2z M256,480.7C131.9,480.7,31.3,380.1,31.3,256C31.3,131.9,131.9,31.3,256,31.3
		c124.1,0,224.7,100.6,224.7,224.7C480.7,380.1,380.1,480.7,256,480.7z"/>
	<g id="XMLID_8_">
		<g id="XMLID_9_">
			<defs>
				<rect id="XMLID_1_" x="143.6" y="139.1" width="224.8" height="233.9"/>
					<clipPath id="XMLID_10_">
					<use xlink:href="#XMLID_1_"  style="overflow:visible;"/>
				</clipPath>
			</defs>
			<path id="XMLID_11_" d="M226.7,372.9c-7.3,0-14.2-3.4-18.6-9.2l-59.8-78.9c-7.8-10.3-5.8-24.9,4.5-32.7
				c10.3-7.8,24.9-5.7,32.7,4.5l39.3,51.9l98.9-158.8c6.8-10.9,21.2-14.3,32.1-7.5c10.9,6.8,14.3,21.2,7.5,32.1L246.5,361.9
				c-4,6.5-11.1,10.6-18.7,11C227.4,372.9,227,372.9,226.7,372.9L226.7,372.9z M226.7,372.9"/>
		</g>
	</g>
</g>
</svg>
