<?xml version="1.0" encoding="utf-8"?>
<!-- Generator: Adobe Illustrator 19.0.0, SVG Export Plug-In . SVG Version: 6.00 Build 0)  -->
<svg version="1.1" id="Layer_1" xmlns="http://www.w3.org/2000/svg" xmlns:xlink="http://www.w3.org/1999/xlink" x="0px" y="0px"
	 viewBox="0 0 225 238" style="enable-background:new 0 0 225 238;" xml:space="preserve">
<g id="XMLID_13_">
	<defs>
		<rect id="XMLID_14_" width="224.9" height="238"/>
	</defs>
	<clipPath id="XMLID_18_">
		<use xlink:href="#XMLID_14_"  style="overflow:visible;"/>
	</clipPath>
	<path id="XMLID_15_" style="clip-path:url(#XMLID_18_);fill:#6D6E71;" d="M222,45.4C192.7,16.1,153.8,0,112.4,0
		C71,0,32.1,16.1,2.8,45.4c-3.8,3.8-3.8,9.8,0,13.6s9.8,3.8,13.6,0c25.6-25.6,59.8-39.8,96-39.8c36.3,0,70.4,14.1,96,39.8
		c1.9,1.9,4.3,2.8,6.8,2.8s4.9-0.9,6.8-2.8C225.8,55.2,225.8,49.2,222,45.4L222,45.4z M222,45.4"/>
</g>
<path id="XMLID_10_" style="fill:#58595B;" d="M112.4,42.6c-30,0-58.2,11.7-79.4,32.9c-3.8,3.8-3.8,9.8,0,13.6
	c3.8,3.7,9.8,3.7,13.6,0c17.6-17.6,41-27.3,65.9-27.3c24.9,0,48.3,9.7,65.9,27.3c1.9,1.9,4.3,2.8,6.8,2.8c2.5,0,4.9-0.9,6.8-2.8
	c3.8-3.7,3.8-9.8,0-13.6C170.6,54.3,142.4,42.6,112.4,42.6L112.4,42.6z M112.4,42.6"/>
<path id="XMLID_7_" style="fill:#414042;" d="M76.7,119.3c9.5-9.5,22.2-14.8,35.7-14.8c13.5,0,26.2,5.2,35.7,14.8
	c1.9,1.9,4.3,2.8,6.8,2.8s4.9-0.9,6.8-2.8c3.7-3.8,3.7-9.8,0-13.6c-13.2-13.2-30.7-20.4-49.3-20.4c-18.6,0-36.1,7.2-49.3,20.4
	c-3.7,3.8-3.7,9.8,0,13.6S73,123.1,76.7,119.3L76.7,119.3z M76.7,119.3"/>
<path id="XMLID_2_" style="fill:#F26522;" d="M173.9,227.8l-56.4-97.8c-1.1-2-3.3-3.2-5.5-3.2c-2.3,0-4.4,1.2-5.5,3.2l-56.7,98.1
	c-1.1,2-1.1,4.4,0,6.4c1.1,2,3.3,3.2,5.5,3.2h113.3c3.5,0,6.4-2.9,6.4-6.4C175,230.1,174.6,228.8,173.9,227.8L173.9,227.8z
	 M105,158.6c0-0.7,0.4-1.4,0.6-2c0.3-0.8,0.9-1.6,1.4-2.3c1.2-1.3,2.9-2.2,4.8-2.2c1.9,0,3.6,0.8,4.8,2.2c0.6,0.6,0.8,1.4,1,2.2
	c0.2,0.6,0.1,1.3,0.1,2v40c0,3.5-2.9,6.4-6.4,6.4c-3.5,0-6.4-2.9-6.4-6.4L105,158.6L105,158.6z M111.9,224.3c-3.5,0-6.4-2.9-6.4-6.4
	c0-3.5,2.9-6.4,6.4-6.4c3.5,0,6.4,2.9,6.4,6.4C118.3,221.4,115.5,224.3,111.9,224.3L111.9,224.3z M111.9,224.3"/>
</svg>
